<?xml version="1.0" encoding="UTF-8"?>
<svg width="24px" height="24px" viewBox="0 0 24 24" version="1.1" xmlns="http://www.w3.org/2000/svg" xmlns:xlink="http://www.w3.org/1999/xlink">
    <!-- Generator: Sketch 62 (91390) - https://sketch.com -->
    <title>handouts</title>
    <desc>Created with Sketch.</desc>
    <defs>
        <path d="M14,0 C16.1421954,0 17.8910789,1.68396847 17.9951047,3.80035966 L18,4 L18,16 C18,18.1421954 16.3160315,19.8910789 14.1996403,19.9951047 L14,20 L4,20 C1.85780461,20 0.108921124,18.3160315 0.00489530723,16.1996403 L0,16 L0,4 C0,1.85780461 1.68396847,0.108921124 3.80035966,0.00489530723 L4,0 L14,0 Z M14,2 L4,2 C2.9456382,2 2.08183488,2.81587779 2.00548574,3.85073766 L2,4 L2,16 C2,17.0543618 2.81587779,17.9181651 3.85073766,17.9945143 L4,18 L14,18 C15.0543618,18 15.9181651,17.1841222 15.9945143,16.1492623 L16,16 L16,4 C16,2.8954305 15.1045695,2 14,2 Z M8,13 C8.55228475,13 9,13.4477153 9,14 C9,14.5522847 8.55228475,15 8,15 L5,15 C4.44771525,15 4,14.5522847 4,14 C4,13.4477153 4.44771525,13 5,13 L8,13 Z M13,13 C13.5522847,13 14,13.4477153 14,14 C14,14.5522847 13.5522847,15 13,15 L12,15 C11.4477153,15 11,14.5522847 11,14 C11,13.4477153 11.4477153,13 12,13 L13,13 Z M13,9 C13.5522847,9 14,9.44771525 14,10 C14,10.5522847 13.5522847,11 13,11 L5,11 C4.44771525,11 4,10.5522847 4,10 C4,9.44771525 4.44771525,9 5,9 L13,9 Z M13,5 C13.5522847,5 14,5.44771525 14,6 C14,6.55228475 13.5522847,7 13,7 L5,7 C4.44771525,7 4,6.55228475 4,6 C4,5.44771525 4.44771525,5 5,5 L13,5 Z" id="path-1"></path>
    </defs>
    <g id="常用操作在上" stroke="none" stroke-width="1" fill="none" fill-rule="evenodd">
        <g id="知识包_讲义播放" transform="translate(-292.000000, -54.000000)">
            <g id="A05-图标-/-01基础图标-/-02头部导航-/-讲义" transform="translate(292.000000, 54.000000)">
                <g id="A05-图标-/-01基础图标-/-02头部导航-/-关闭">
                    <g id="矩形" transform="translate(3.000000, 2.000000)">
                        <g>
                            <mask id="mask-2" fill="white">
                                <use xlink:href="#path-1"></use>
                            </mask>
                            <use id="蒙版" fill="#979797" fill-rule="nonzero" xlink:href="#path-1"></use>
                            <rect fill="#FFFFFF" mask="url(#mask-2)" x="-3" y="-2" width="24" height="24"></rect>
                        </g>
                    </g>
                </g>
            </g>
        </g>
    </g>
</svg>